<?xml version="1.0" encoding="UTF-8" standalone="no"?>
<svg
   xmlns:dc="http://purl.org/dc/elements/1.1/"
   xmlns:cc="http://creativecommons.org/ns#"
   xmlns:rdf="http://www.w3.org/1999/02/22-rdf-syntax-ns#"
   xmlns:svg="http://www.w3.org/2000/svg"
   xmlns="http://www.w3.org/2000/svg"
   viewBox="0 0 960 960"
   height="960"
   width="960"
   xml:space="preserve"
   id="svg2"
   version="1.1"><metadata
     id="metadata8"><rdf:RDF><cc:Work
         rdf:about=""><dc:format>image/svg+xml</dc:format><dc:type
           rdf:resource="http://purl.org/dc/dcmitype/StillImage" /></cc:Work></rdf:RDF></metadata><defs
     id="defs6"><clipPath
       id="clipPath18"
       clipPathUnits="userSpaceOnUse"><path
         id="path16"
         d="M 0,720 H 720 V 0 H 0 Z" /></clipPath></defs><g
     transform="matrix(1.3333333,0,0,-1.3333333,0,960)"
     id="g10"><g
       id="g12"><g
         clip-path="url(#clipPath18)"
         id="g14"><g
           transform="translate(360,28.7998)"
           id="g20"><path
             id="path22"
             style="fill:#000000;fill-opacity:1;fill-rule:nonzero;stroke:none"
             d="m 0,0 c -182.917,0 -331.2,148.283 -331.2,331.2 0,182.917 148.283,331.2 331.2,331.2 182.917,0 331.2,-148.283 331.2,-331.2 C 331.2,148.283 182.917,0 0,0 m 0,691.2 c -198.823,0 -360,-161.178 -360,-360 0,-198.822 161.177,-360 360,-360 198.823,0 360,161.178 360,360 0,198.822 -161.177,360 -360,360" /></g><g
           transform="translate(370.7998,320.4004)"
           id="g24"><path
             id="path26"
             style="fill:#000000;fill-opacity:1;fill-rule:nonzero;stroke:none"
             d="M 0,0 H 64.8 V -129.601 H 93.601 V 0 H 158.4 V 28.8 H 0 Z" /></g><g
           transform="translate(332.4351,352.7998)"
           id="g28"><path
             id="path30"
             style="fill:#000000;fill-opacity:1;fill-rule:nonzero;stroke:none"
             d="M 0,0 -62.435,-62.435 -124.87,0 -145.235,-20.365 -82.8,-82.8 l -62.435,-62.434 20.365,-20.366 62.435,62.435 L 0,-165.6 20.365,-145.234 -42.07,-82.8 20.365,-20.365 Z" /></g><g
           transform="translate(448.1992,504)"
           id="g32"><path
             id="path34"
             style="fill:#000000;fill-opacity:1;fill-rule:nonzero;stroke:none"
             d="m 0,0 c 10.12,0 19.559,-2.893 27.558,-7.879 l -71.883,-71.883 c -4.986,8 -7.874,17.442 -7.874,27.562 C -52.199,-23.371 -28.828,0 0,0 m 0,-133.2 c 44.735,0 81,36.265 81,81 H 52.2 c 0,-28.829 -23.371,-52.2 -52.2,-52.2 -8.229,0 -16.01,1.91 -22.933,5.302 l 69.831,69.831 21.084,21.083 C 53.546,14.068 28.5,28.8 0,28.8 c -44.734,0 -81,-36.265 -81,-81 0,-44.735 36.266,-81 81,-81" /></g><g
           transform="translate(270,460.4155)"
           id="g36"><path
             id="path38"
             style="fill:#000000;fill-opacity:1;fill-rule:nonzero;stroke:none"
             d="M 0,0 -60.738,72.384 -82.8,53.872 -14.4,-27.644 v -61.972 h 28.8 v 61.972 L 82.8,53.872 60.738,72.384 Z" /></g><g
           transform="translate(630,16.3037)"
           id="g40"><path
             id="path42"
             style="fill:#000000;fill-opacity:1;fill-rule:nonzero;stroke:none"
             d="m 0,0 c -14.634,0 -26.496,11.863 -26.496,26.496 0,14.634 11.862,26.496 26.496,26.496 14.634,0 26.496,-11.862 26.496,-26.496 C 26.496,11.863 14.634,0 0,0 m 0,55.296 c -15.906,0 -28.8,-12.894 -28.8,-28.8 0,-15.905 12.894,-28.8 28.8,-28.8 15.906,0 28.8,12.895 28.8,28.8 0,15.906 -12.894,28.8 -28.8,28.8" /></g><g
           transform="translate(622.8018,42.3291)"
           id="g44"><path
             id="path46"
             style="fill:#000000;fill-opacity:1;fill-rule:nonzero;stroke:none"
             d="m 0,0 h 9.074 c 3.446,0 6.247,2.839 6.247,6.329 0,3.513 -2.801,6.37 -6.247,6.37 H 0 Z M 18.481,-13.929 H 15.84 l -0.019,0.031 -6.864,11.726 H 0 v -11.757 h -2.294 v 28.8 H 9.074 c 4.71,0 8.542,-3.832 8.542,-8.542 0,-3.8 -2.577,-7.156 -6.276,-8.19 z" /></g></g></g></g></svg>